<?xml version="1.0" encoding="UTF-8"?>
<svg xmlns="http://www.w3.org/2000/svg" xmlns:xlink="http://www.w3.org/1999/xlink" width="410.64pt" height="88pt" viewBox="0 0 410.64 88" version="1.1">
<defs>
<clipPath id="clip1">
  <path d="M 389 48 L 410.640625 48 L 410.640625 70 L 389 70 Z M 389 48 "/>
</clipPath>
</defs>
<g id="surface1">
<path style=" stroke:none;fill-rule:nonzero;fill:rgb(13.699341%,12.199402%,12.5%);fill-opacity:1;" d="M 0 88 L 135.273438 88 L 135.273438 0 L 0 0 Z M 0 88 "/>
<path style=" stroke:none;fill-rule:nonzero;fill:rgb(92.89856%,10.998535%,14.099121%);fill-opacity:1;" d="M 154.183594 88 L 289.453125 88 L 289.453125 0 L 154.183594 0 Z M 154.183594 88 "/>
<path style=" stroke:none;fill-rule:evenodd;fill:rgb(100%,100%,100%);fill-opacity:1;" d="M 41.605469 41.019531 L 37.742188 43.308594 C 37.019531 42.054688 36.328125 41.238281 35.671875 40.851563 C 34.992188 40.417969 34.113281 40.199219 33.035156 40.199219 C 31.710938 40.199219 30.613281 40.574219 29.742188 41.324219 C 28.867188 42.058594 28.433594 42.988281 28.433594 44.105469 C 28.433594 45.648438 29.578125 46.890625 31.871094 47.828125 L 35.019531 49.117188 C 37.582031 50.15625 39.457031 51.421875 40.648438 52.921875 C 41.832031 54.410156 42.425781 56.238281 42.425781 58.40625 C 42.425781 61.3125 41.457031 63.710938 39.523438 65.605469 C 37.570313 67.515625 35.152344 68.46875 32.261719 68.472656 C 29.519531 68.46875 27.253906 67.660156 25.46875 66.035156 C 23.707031 64.414063 22.609375 62.128906 22.171875 59.183594 L 27 58.121094 C 27.21875 59.972656 27.601563 61.257813 28.148438 61.964844 C 29.128906 63.328125 30.5625 64.011719 32.445313 64.011719 C 33.929688 64.011719 35.164063 63.515625 36.148438 62.519531 C 37.128906 61.523438 37.617188 60.261719 37.617188 58.734375 C 37.617188 58.121094 37.53125 57.558594 37.351563 57.054688 C 37.191406 56.539063 36.921875 56.066406 36.554688 55.644531 C 36.199219 55.207031 35.738281 54.804688 35.164063 54.4375 C 34.589844 54.054688 33.910156 53.695313 33.117188 53.351563 L 30.070313 52.085938 C 25.746094 50.257813 23.585938 47.585938 23.585938 44.066406 C 23.582031 41.691406 24.492188 39.707031 26.304688 38.113281 C 28.117188 36.503906 30.375 35.699219 33.074219 35.699219 C 36.71875 35.699219 39.558594 37.472656 41.605469 41.019531 "/>
<path style=" stroke:none;fill-rule:evenodd;fill:rgb(100%,100%,100%);fill-opacity:1;" d="M 50.242188 52.269531 L 50.242188 67.898438 L 45.640625 67.898438 L 45.636719 52.269531 L 43.671875 52.269531 L 43.671875 47.972656 L 45.636719 47.972656 L 45.636719 40.667969 L 50.238281 40.671875 L 50.242188 47.972656 L 53.820313 47.972656 L 53.820313 52.269531 "/>
<path style=" stroke:none;fill-rule:evenodd;fill:rgb(100%,100%,100%);fill-opacity:1;" d="M 59.042969 47.972656 L 59.042969 59.410156 C 59.042969 62.710938 60.34375 64.359375 62.949219 64.359375 C 65.554688 64.359375 66.855469 62.710938 66.855469 59.410156 L 66.855469 47.972656 L 71.457031 47.972656 L 71.460938 59.511719 C 71.460938 61.109375 71.261719 62.484375 70.867188 63.644531 C 70.484375 64.679688 69.824219 65.617188 68.882813 66.449219 C 67.328125 67.796875 65.351563 68.472656 62.949219 68.472656 C 60.5625 68.472656 58.59375 67.796875 57.039063 66.445313 C 56.082031 65.613281 55.40625 64.679688 55.011719 63.644531 C 54.632813 62.71875 54.441406 61.339844 54.441406 59.511719 L 54.4375 47.972656 "/>
<path style=" stroke:none;fill-rule:evenodd;fill:rgb(100%,100%,100%);fill-opacity:1;" d="M 76.46875 57.875 C 76.46875 59.785156 76.980469 61.339844 78.003906 62.539063 C 79.054688 63.753906 80.378906 64.359375 81.972656 64.359375 C 83.679688 64.359375 85.054688 63.773438 86.105469 62.601563 C 87.15625 61.386719 87.679688 59.84375 87.679688 57.976563 C 87.679688 56.109375 87.15625 54.566406 86.105469 53.351563 C 85.054688 52.164063 83.691406 51.574219 82.015625 51.574219 C 80.429688 51.574219 79.109375 52.171875 78.042969 53.375 C 76.996094 54.585938 76.46875 56.089844 76.46875 57.875 M 87.394531 37.824219 L 92.015625 37.824219 L 92.019531 67.898438 L 87.394531 67.898438 L 87.394531 65.8125 C 85.582031 67.585938 83.527344 68.46875 81.238281 68.472656 C 78.511719 68.472656 76.246094 67.476563 74.445313 65.484375 C 72.65625 63.453125 71.765625 60.914063 71.765625 57.875 C 71.765625 54.902344 72.65625 52.417969 74.445313 50.425781 C 76.21875 48.421875 78.445313 47.417969 81.132813 47.417969 C 83.464844 47.417969 85.554688 48.375 87.394531 50.285156 "/>
<path style=" stroke:none;fill-rule:evenodd;fill:rgb(100%,100%,100%);fill-opacity:1;" d="M 107.589844 57.875 C 107.589844 59.863281 108.121094 61.441406 109.183594 62.601563 C 110.273438 63.773438 111.714844 64.359375 113.5 64.359375 C 115.300781 64.359375 116.738281 63.78125 117.816406 62.621094 C 118.894531 61.460938 119.433594 59.914063 119.433594 57.976563 C 119.433594 56.039063 118.894531 54.492188 117.816406 53.332031 C 116.726563 52.160156 115.285156 51.574219 113.5 51.574219 C 111.738281 51.574219 110.316406 52.160156 109.222656 53.332031 C 108.132813 54.507813 107.589844 56.019531 107.589844 57.875 M 102.882813 57.792969 C 102.882813 54.914063 103.910156 52.46875 105.972656 50.449219 C 108.03125 48.429688 110.539063 47.421875 113.5 47.417969 C 116.472656 47.417969 118.996094 48.4375 121.066406 50.46875 C 123.113281 52.5 124.136719 54.996094 124.136719 57.957031 C 124.136719 60.941406 123.109375 63.445313 121.050781 65.464844 C 118.976563 67.46875 116.433594 68.472656 113.417969 68.472656 C 110.433594 68.472656 107.929688 67.449219 105.910156 65.402344 C 103.890625 63.382813 102.882813 60.847656 102.882813 57.792969 "/>
<path style=" stroke:none;fill-rule:evenodd;fill:rgb(92.89856%,10.998535%,14.099121%);fill-opacity:1;" d="M 94.277344 62.527344 L 94.277344 62.296875 C 94.261719 61.898438 94.222656 61.601563 94.222656 61.5 C 94.222656 61.214844 93.734375 58.25 93.660156 57.5625 C 93.589844 56.878906 93.765625 56.714844 93.765625 56.714844 C 93.308594 54.183594 94.160156 51.472656 94.160156 51.472656 C 93.851563 51.214844 94.488281 49.859375 94.488281 49.859375 C 94.957031 48.746094 95.523438 47.160156 95.523438 47.160156 C 95.621094 46.804688 95.746094 46.28125 95.84375 45.710938 C 95.925781 44.835938 95.933594 43.945313 95.933594 43.65625 C 95.933594 43.433594 95.648438 43.445313 95.648438 43.242188 C 95.648438 43.007813 95.929688 42.433594 95.949219 42.375 C 95.957031 42.328125 95.953125 42.234375 95.925781 42.171875 C 95.835938 41.78125 96.046875 41.507813 96.367188 41.507813 L 98.855469 41.507813 C 99.171875 41.507813 99.382813 41.78125 99.382813 42.054688 C 99.269531 42.234375 99.261719 42.328125 99.273438 42.375 C 99.289063 42.433594 99.574219 43.007813 99.574219 43.242188 C 99.574219 43.445313 99.285156 43.433594 99.285156 43.65625 C 99.285156 43.941406 99.292969 44.828125 99.378906 45.703125 C 99.472656 46.277344 99.597656 46.800781 99.691406 47.160156 C 99.695313 47.160156 100.261719 48.746094 100.730469 49.859375 C 100.730469 49.859375 101.367188 51.214844 101.0625 51.472656 C 101.0625 51.472656 101.910156 54.183594 101.457031 56.714844 C 101.457031 56.714844 101.628906 56.878906 101.558594 57.5625 C 101.484375 58.25 100.996094 61.214844 100.996094 61.5 C 100.996094 61.605469 100.960938 61.902344 100.945313 62.308594 L 100.945313 62.527344 C 100.945313 64.324219 101.6875 65.203125 101.6875 66.363281 C 101.6875 67.914063 100.703125 68.71875 97.609375 68.71875 C 94.515625 68.71875 93.53125 67.914063 93.53125 66.363281 C 93.53125 65.203125 94.277344 64.324219 94.277344 62.527344 M 87.191406 28.371094 C 87.429688 27.902344 87.5 27.289063 87.414063 26.519531 C 87.328125 25.753906 87.125 25.171875 86.800781 24.769531 C 86.488281 24.355469 86.082031 24.152344 85.59375 24.152344 C 84.921875 24.152344 84.339844 24.71875 83.867188 25.839844 C 83.394531 26.964844 83.167969 28.382813 83.199219 30.105469 C 83.710938 30.042969 84.222656 29.957031 84.722656 29.859375 C 85.222656 29.765625 85.613281 29.644531 85.898438 29.511719 C 86.523438 29.21875 86.953125 28.835938 87.191406 28.371094 M 70.546875 18.011719 L 70.476563 29.40625 C 71.371094 28.191406 73.765625 25.636719 74.324219 24.925781 C 74.324219 24.925781 75.105469 23.988281 73.132813 22.914063 L 78.535156 22.914063 C 78.535156 22.914063 74.355469 27.800781 73.925781 28.277344 C 74.550781 29.320313 74.949219 29.894531 75.703125 31.136719 C 76.449219 32.386719 77 33.246094 77.339844 33.71875 C 77.75 34.289063 78.105469 34.6875 78.414063 34.914063 C 78.726563 35.140625 79.195313 35.257813 79.84375 35.257813 C 79.992188 35.257813 80.15625 35.238281 80.335938 35.203125 C 79.925781 34.761719 79.585938 34.273438 79.320313 33.726563 C 78.992188 33.03125 78.777344 32.269531 78.679688 31.429688 C 78.566406 30.371094 78.628906 29.339844 78.902344 28.347656 C 79.171875 27.347656 79.644531 26.453125 80.320313 25.652344 C 80.953125 24.894531 81.792969 24.273438 82.84375 23.796875 C 83.898438 23.320313 85.089844 23.082031 86.429688 23.082031 C 88.003906 23.082031 89.226563 23.335938 90.109375 23.847656 C 90.988281 24.363281 91.492188 25.128906 91.605469 26.160156 C 91.714844 27.136719 91.460938 27.984375 90.835938 28.691406 C 90.203125 29.398438 89.300781 29.917969 88.128906 30.261719 C 87.195313 30.558594 86.402344 30.769531 85.734375 30.898438 C 85.074219 31.023438 84.257813 31.136719 83.292969 31.246094 C 83.359375 31.636719 83.457031 32.082031 83.601563 32.578125 C 83.746094 33.066406 83.925781 33.492188 84.136719 33.839844 C 84.394531 34.238281 84.730469 34.5625 85.144531 34.800781 C 85.554688 35.035156 86.058594 35.15625 86.652344 35.15625 C 86.652344 35.15625 87.070313 35.179688 87.746094 35.0625 C 88.753906 34.894531 90.289063 34.414063 91.683594 33.054688 C 90.089844 37.476563 85.507813 37.179688 85.507813 37.179688 C 84.503906 37.183594 83.589844 37.039063 82.789063 36.757813 C 82.28125 36.578125 81.820313 36.355469 81.40625 36.089844 C 80.65625 36.421875 79.773438 36.777344 79.332031 36.902344 C 78.726563 37.074219 78.167969 37.160156 77.660156 37.160156 C 77.414063 37.160156 77.105469 37.144531 76.722656 37.105469 C 76.347656 37.070313 76.003906 36.996094 75.707031 36.867188 C 75.332031 36.703125 74.96875 36.476563 74.625 36.1875 C 74.273438 35.902344 73.902344 35.441406 73.5 34.8125 C 72.921875 33.921875 72.503906 33.242188 72.242188 32.769531 L 71.152344 30.84375 L 70.453125 31.710938 L 70.425781 36.785156 L 66.226563 36.78125 L 66.195313 20.316406 C 66.199219 20.15625 66.195313 20.019531 66.179688 19.882813 C 66.171875 19.753906 66.15625 19.632813 66.128906 19.546875 C 66.066406 19.222656 65.957031 18.964844 65.808594 18.777344 C 65.664063 18.582031 65.472656 18.429688 65.238281 18.316406 C 65.007813 18.199219 64.761719 18.046875 64.480469 18 Z M 60.414063 30.152344 C 60.40625 29.097656 60.324219 28.097656 60.175781 27.152344 C 60.003906 26.097656 59.707031 25.324219 59.285156 24.832031 C 58.863281 24.332031 58.320313 24.085938 57.667969 24.085938 C 56.996094 24.085938 56.421875 24.363281 55.953125 24.914063 C 55.484375 25.46875 55.164063 26.28125 54.980469 27.355469 C 54.816406 28.246094 54.753906 29.214844 54.789063 30.253906 C 54.824219 31.296875 54.90625 32.226563 55.035156 33.050781 C 55.214844 34.140625 55.511719 34.929688 55.9375 35.421875 C 56.367188 35.910156 56.910156 36.160156 57.574219 36.160156 C 58.292969 36.160156 58.867188 35.859375 59.292969 35.253906 C 59.714844 34.648438 60.015625 33.902344 60.179688 33.027344 C 60.480469 31.5 60.4375 31.796875 60.414063 30.152344 M 62.679688 24.539063 C 63.976563 25.53125 64.773438 26.914063 65.054688 28.683594 C 65.234375 29.820313 65.199219 30.902344 64.945313 31.9375 C 64.683594 32.972656 64.238281 33.871094 63.585938 34.636719 C 62.878906 35.453125 62.007813 36.085938 60.960938 36.53125 C 59.917969 36.972656 58.699219 37.195313 57.300781 37.195313 C 55.4375 37.195313 53.847656 36.683594 52.542969 35.664063 C 51.710938 35.019531 51.089844 34.230469 50.671875 33.289063 C 50.515625 33.527344 50.347656 33.765625 50.164063 34.003906 C 49.667969 34.660156 49.074219 35.234375 48.382813 35.71875 C 47.660156 36.234375 46.898438 36.625 46.089844 36.898438 C 45.296875 37.167969 44.296875 37.300781 43.121094 37.300781 C 41.921875 37.300781 40.789063 37.117188 39.710938 36.753906 C 38.640625 36.394531 37.679688 35.863281 36.84375 35.179688 C 36.015625 34.496094 35.320313 33.65625 34.765625 32.671875 C 34.21875 31.683594 33.851563 30.570313 33.667969 29.328125 C 33.433594 27.675781 33.507813 26.125 33.894531 24.667969 C 34.273438 23.203125 34.914063 21.902344 35.832031 20.757813 C 36.703125 19.65625 37.835938 18.777344 39.226563 18.097656 C 40.621094 17.429688 42.15625 17.09375 43.832031 17.09375 C 44.847656 17.09375 45.894531 17.222656 46.96875 17.476563 C 47.199219 17.53125 47.414063 17.578125 47.628906 17.648438 C 48.855469 18.03125 49.710938 18.09375 50.296875 18.035156 L 49.902344 23.542969 C 49.304688 22.058594 48.394531 20.753906 47.605469 19.941406 C 46.574219 18.875 45.363281 18.339844 43.980469 18.339844 C 42.960938 18.339844 42.070313 18.652344 41.296875 19.273438 C 40.527344 19.890625 39.898438 20.851563 39.421875 22.136719 C 39.03125 23.199219 38.792969 24.433594 38.707031 25.832031 C 38.617188 27.230469 38.667969 28.542969 38.839844 29.769531 C 39.097656 31.566406 39.726563 32.972656 40.71875 33.964844 C 41.710938 34.96875 42.925781 35.46875 44.355469 35.46875 C 45.613281 35.46875 46.722656 35.109375 47.691406 34.390625 C 48.585938 33.71875 49.414063 32.78125 50.167969 31.5625 C 49.964844 30.296875 50 29.183594 50.273438 28.160156 C 50.539063 27.132813 51.007813 26.234375 51.660156 25.472656 C 52.316406 24.726563 53.167969 24.132813 54.222656 23.699219 C 55.273438 23.257813 56.449219 23.046875 57.761719 23.046875 C 59.730469 23.046875 61.375 23.542969 62.679688 24.539063 "/>
<path style=" stroke:none;fill-rule:evenodd;fill:rgb(100%,100%,100%);fill-opacity:1;" d="M 240.277344 62.527344 L 240.277344 62.296875 C 240.261719 61.898438 240.222656 61.601563 240.222656 61.5 C 240.222656 61.214844 239.734375 58.25 239.660156 57.5625 C 239.589844 56.878906 239.765625 56.714844 239.765625 56.714844 C 239.308594 54.183594 240.160156 51.472656 240.160156 51.472656 C 239.851563 51.214844 240.488281 49.859375 240.488281 49.859375 C 240.960938 48.746094 241.523438 47.160156 241.523438 47.160156 C 241.621094 46.804688 241.746094 46.28125 241.84375 45.710938 C 241.925781 44.835938 241.933594 43.945313 241.933594 43.65625 C 241.933594 43.433594 241.644531 43.445313 241.644531 43.242188 C 241.644531 43.007813 241.933594 42.433594 241.949219 42.375 C 241.960938 42.328125 241.953125 42.234375 241.925781 42.171875 C 241.835938 41.78125 242.046875 41.507813 242.367188 41.507813 L 244.855469 41.507813 C 245.171875 41.507813 245.382813 41.78125 245.382813 42.054688 C 245.269531 42.234375 245.261719 42.328125 245.273438 42.375 C 245.289063 42.433594 245.574219 43.007813 245.574219 43.242188 C 245.574219 43.445313 245.285156 43.433594 245.285156 43.65625 C 245.285156 43.941406 245.296875 44.828125 245.378906 45.703125 C 245.472656 46.277344 245.597656 46.800781 245.691406 47.160156 C 245.695313 47.160156 246.261719 48.746094 246.730469 49.859375 C 246.730469 49.859375 247.367188 51.214844 247.0625 51.472656 C 247.0625 51.472656 247.910156 54.183594 247.457031 56.714844 C 247.457031 56.714844 247.628906 56.878906 247.558594 57.5625 C 247.484375 58.25 246.996094 61.214844 246.996094 61.5 C 246.996094 61.605469 246.960938 61.902344 246.945313 62.308594 L 246.945313 62.527344 C 246.945313 64.324219 247.6875 65.203125 247.6875 66.363281 C 247.6875 67.914063 246.703125 68.71875 243.609375 68.71875 C 240.515625 68.71875 239.53125 67.914063 239.53125 66.363281 C 239.53125 65.203125 240.277344 64.324219 240.277344 62.527344 M 233.191406 28.371094 C 233.433594 27.902344 233.503906 27.289063 233.414063 26.519531 C 233.328125 25.753906 233.125 25.171875 232.800781 24.769531 C 232.488281 24.355469 232.078125 24.152344 231.597656 24.152344 C 230.921875 24.152344 230.339844 24.71875 229.867188 25.839844 C 229.394531 26.964844 229.167969 28.382813 229.199219 30.105469 C 229.710938 30.042969 230.226563 29.957031 230.722656 29.859375 C 231.222656 29.765625 231.613281 29.644531 231.898438 29.511719 C 232.523438 29.21875 232.953125 28.835938 233.191406 28.371094 M 216.546875 18.011719 L 216.476563 29.40625 C 217.371094 28.191406 219.765625 25.636719 220.324219 24.925781 C 220.324219 24.925781 221.105469 23.988281 219.132813 22.914063 L 224.535156 22.914063 C 224.535156 22.914063 220.355469 27.800781 219.929688 28.277344 C 220.550781 29.320313 220.949219 29.894531 221.703125 31.136719 C 222.449219 32.386719 222.996094 33.246094 223.339844 33.71875 C 223.753906 34.289063 224.105469 34.6875 224.414063 34.914063 C 224.726563 35.140625 225.195313 35.257813 225.847656 35.257813 C 225.992188 35.257813 226.15625 35.238281 226.335938 35.203125 C 225.925781 34.761719 225.589844 34.273438 225.320313 33.726563 C 224.992188 33.03125 224.777344 32.269531 224.679688 31.429688 C 224.5625 30.371094 224.628906 29.339844 224.902344 28.347656 C 225.171875 27.347656 225.644531 26.453125 226.320313 25.652344 C 226.953125 24.894531 227.792969 24.273438 228.847656 23.796875 C 229.898438 23.320313 231.089844 23.082031 232.429688 23.082031 C 234.003906 23.082031 235.230469 23.335938 236.109375 23.847656 C 236.988281 24.363281 237.492188 25.128906 237.605469 26.160156 C 237.714844 27.136719 237.460938 27.984375 236.835938 28.691406 C 236.203125 29.398438 235.300781 29.917969 234.128906 30.261719 C 233.195313 30.558594 232.402344 30.769531 231.734375 30.898438 C 231.074219 31.023438 230.257813 31.136719 229.292969 31.246094 C 229.359375 31.636719 229.460938 32.082031 229.601563 32.578125 C 229.746094 33.066406 229.925781 33.492188 230.136719 33.839844 C 230.394531 34.238281 230.730469 34.5625 231.144531 34.800781 C 231.554688 35.035156 232.058594 35.15625 232.652344 35.15625 C 232.652344 35.15625 233.070313 35.179688 233.746094 35.0625 C 234.753906 34.894531 236.289063 34.414063 237.6875 33.054688 C 236.089844 37.476563 231.507813 37.179688 231.507813 37.179688 C 230.503906 37.183594 229.589844 37.039063 228.789063 36.757813 C 228.28125 36.578125 227.820313 36.355469 227.40625 36.089844 C 226.65625 36.421875 225.773438 36.777344 225.335938 36.902344 C 224.726563 37.074219 224.167969 37.160156 223.660156 37.160156 C 223.414063 37.160156 223.105469 37.144531 222.722656 37.105469 C 222.347656 37.070313 222.003906 36.996094 221.710938 36.867188 C 221.328125 36.703125 220.96875 36.476563 220.625 36.1875 C 220.273438 35.902344 219.902344 35.441406 219.5 34.8125 C 218.921875 33.921875 218.503906 33.242188 218.242188 32.769531 L 217.152344 30.84375 L 216.453125 31.710938 L 216.425781 36.785156 L 212.230469 36.78125 L 212.195313 20.316406 C 212.199219 20.15625 212.195313 20.019531 212.183594 19.882813 C 212.171875 19.753906 212.15625 19.632813 212.128906 19.546875 C 212.0625 19.222656 211.957031 18.964844 211.808594 18.777344 C 211.664063 18.582031 211.472656 18.429688 211.238281 18.316406 C 211.007813 18.199219 210.761719 18.046875 210.480469 18 Z M 206.414063 30.152344 C 206.40625 29.097656 206.324219 28.097656 206.175781 27.152344 C 206.003906 26.097656 205.707031 25.324219 205.285156 24.832031 C 204.863281 24.332031 204.320313 24.085938 203.667969 24.085938 C 202.996094 24.085938 202.421875 24.363281 201.953125 24.914063 C 201.484375 25.46875 201.164063 26.28125 200.980469 27.355469 C 200.816406 28.246094 200.753906 29.214844 200.789063 30.253906 C 200.824219 31.296875 200.90625 32.226563 201.035156 33.050781 C 201.214844 34.140625 201.511719 34.929688 201.9375 35.421875 C 202.367188 35.910156 202.910156 36.160156 203.574219 36.160156 C 204.292969 36.160156 204.867188 35.859375 205.292969 35.253906 C 205.714844 34.648438 206.015625 33.902344 206.179688 33.027344 C 206.480469 31.5 206.4375 31.796875 206.414063 30.152344 M 208.679688 24.539063 C 209.976563 25.53125 210.769531 26.914063 211.054688 28.683594 C 211.234375 29.820313 211.199219 30.902344 210.945313 31.9375 C 210.683594 32.972656 210.238281 33.871094 209.585938 34.636719 C 208.878906 35.453125 208.007813 36.085938 206.960938 36.53125 C 205.917969 36.972656 204.699219 37.195313 203.300781 37.195313 C 201.4375 37.195313 199.847656 36.683594 198.542969 35.664063 C 197.710938 35.019531 197.089844 34.230469 196.671875 33.289063 C 196.515625 33.527344 196.347656 33.765625 196.164063 34.003906 C 195.664063 34.660156 195.074219 35.234375 194.382813 35.71875 C 193.660156 36.234375 192.898438 36.625 192.089844 36.898438 C 191.296875 37.167969 190.296875 37.300781 189.121094 37.300781 C 187.921875 37.300781 186.789063 37.117188 185.714844 36.753906 C 184.640625 36.394531 183.679688 35.863281 182.84375 35.179688 C 182.015625 34.496094 181.320313 33.65625 180.765625 32.671875 C 180.21875 31.683594 179.851563 30.570313 179.667969 29.328125 C 179.433594 27.675781 179.507813 26.125 179.894531 24.667969 C 180.273438 23.203125 180.914063 21.902344 181.832031 20.757813 C 182.703125 19.65625 183.839844 18.777344 185.226563 18.097656 C 186.621094 17.429688 188.15625 17.09375 189.835938 17.09375 C 190.847656 17.09375 191.894531 17.222656 192.96875 17.476563 C 193.199219 17.53125 193.414063 17.578125 193.628906 17.648438 C 194.855469 18.03125 195.710938 18.09375 196.296875 18.035156 L 195.902344 23.542969 C 195.304688 22.058594 194.394531 20.753906 193.605469 19.941406 C 192.574219 18.875 191.363281 18.339844 189.980469 18.339844 C 188.960938 18.339844 188.070313 18.652344 187.296875 19.273438 C 186.527344 19.890625 185.898438 20.851563 185.421875 22.136719 C 185.03125 23.199219 184.796875 24.433594 184.707031 25.832031 C 184.617188 27.230469 184.667969 28.542969 184.839844 29.769531 C 185.097656 31.566406 185.726563 32.972656 186.71875 33.964844 C 187.710938 34.96875 188.929688 35.46875 190.355469 35.46875 C 191.613281 35.46875 192.722656 35.109375 193.6875 34.390625 C 194.585938 33.71875 195.414063 32.78125 196.167969 31.5625 C 195.964844 30.296875 196 29.183594 196.269531 28.160156 C 196.539063 27.132813 197.007813 26.234375 197.660156 25.472656 C 198.3125 24.726563 199.167969 24.132813 200.222656 23.699219 C 201.273438 23.257813 202.449219 23.046875 203.761719 23.046875 C 205.730469 23.046875 207.378906 23.542969 208.679688 24.539063 "/>
<path style=" stroke:none;fill-rule:evenodd;fill:rgb(13.699341%,12.199402%,12.5%);fill-opacity:1;" d="M 187.605469 41.019531 L 183.742188 43.308594 C 183.019531 42.054688 182.328125 41.238281 181.675781 40.851563 C 180.992188 40.417969 180.113281 40.199219 179.035156 40.199219 C 177.710938 40.199219 176.613281 40.574219 175.742188 41.324219 C 174.867188 42.058594 174.433594 42.988281 174.433594 44.105469 C 174.433594 45.648438 175.578125 46.890625 177.871094 47.828125 L 181.019531 49.117188 C 183.585938 50.15625 185.460938 51.421875 186.648438 52.921875 C 187.832031 54.410156 188.425781 56.238281 188.425781 58.40625 C 188.425781 61.3125 187.457031 63.710938 185.523438 65.605469 C 183.570313 67.515625 181.152344 68.46875 178.261719 68.472656 C 175.519531 68.46875 173.253906 67.660156 171.46875 66.035156 C 169.710938 64.414063 168.609375 62.128906 168.175781 59.183594 L 173.003906 58.121094 C 173.21875 59.972656 173.601563 61.257813 174.148438 61.964844 C 175.128906 63.328125 176.5625 64.011719 178.445313 64.011719 C 179.929688 64.011719 181.164063 63.515625 182.148438 62.519531 C 183.128906 61.523438 183.617188 60.261719 183.617188 58.734375 C 183.617188 58.121094 183.53125 57.558594 183.351563 57.054688 C 183.191406 56.539063 182.921875 56.066406 182.554688 55.644531 C 182.199219 55.207031 181.738281 54.804688 181.164063 54.4375 C 180.589844 54.054688 179.910156 53.695313 179.117188 53.351563 L 176.070313 52.085938 C 171.746094 50.257813 169.585938 47.585938 169.585938 44.066406 C 169.585938 41.691406 170.492188 39.707031 172.304688 38.113281 C 174.117188 36.503906 176.375 35.699219 179.074219 35.699219 C 182.71875 35.699219 185.5625 37.472656 187.605469 41.019531 "/>
<path style=" stroke:none;fill-rule:evenodd;fill:rgb(13.699341%,12.199402%,12.5%);fill-opacity:1;" d="M 196.242188 52.269531 L 196.242188 67.898438 L 191.640625 67.898438 L 191.636719 52.269531 L 189.675781 52.269531 L 189.675781 47.972656 L 191.636719 47.972656 L 191.636719 40.667969 L 196.238281 40.671875 L 196.242188 47.972656 L 199.820313 47.972656 L 199.820313 52.269531 "/>
<path style=" stroke:none;fill-rule:evenodd;fill:rgb(13.699341%,12.199402%,12.5%);fill-opacity:1;" d="M 205.042969 47.972656 L 205.042969 59.410156 C 205.042969 62.710938 206.34375 64.359375 208.949219 64.359375 C 211.554688 64.359375 212.855469 62.710938 212.855469 59.410156 L 212.855469 47.972656 L 217.460938 47.972656 L 217.460938 59.511719 C 217.460938 61.109375 217.261719 62.484375 216.867188 63.644531 C 216.484375 64.679688 215.824219 65.617188 214.882813 66.449219 C 213.328125 67.796875 211.351563 68.472656 208.949219 68.472656 C 206.5625 68.472656 204.59375 67.796875 203.039063 66.445313 C 202.085938 65.613281 201.40625 64.679688 201.011719 63.644531 C 200.632813 62.71875 200.441406 61.339844 200.441406 59.511719 L 200.4375 47.972656 "/>
<path style=" stroke:none;fill-rule:evenodd;fill:rgb(13.699341%,12.199402%,12.5%);fill-opacity:1;" d="M 222.46875 57.875 C 222.46875 59.785156 222.980469 61.339844 224.003906 62.539063 C 225.054688 63.753906 226.378906 64.359375 227.972656 64.359375 C 229.679688 64.359375 231.054688 63.773438 232.105469 62.601563 C 233.15625 61.386719 233.679688 59.84375 233.679688 57.976563 C 233.679688 56.109375 233.15625 54.566406 232.105469 53.351563 C 231.054688 52.164063 229.691406 51.574219 228.015625 51.574219 C 226.429688 51.574219 225.109375 52.171875 224.046875 53.375 C 222.996094 54.585938 222.46875 56.089844 222.46875 57.875 M 233.394531 37.824219 L 238.015625 37.824219 L 238.019531 67.898438 L 233.394531 67.898438 L 233.394531 65.8125 C 231.582031 67.585938 229.527344 68.46875 227.238281 68.472656 C 224.511719 68.472656 222.246094 67.476563 220.445313 65.484375 C 218.65625 63.453125 217.765625 60.914063 217.765625 57.875 C 217.765625 54.902344 218.65625 52.417969 220.445313 50.425781 C 222.21875 48.421875 224.445313 47.417969 227.132813 47.417969 C 229.464844 47.417969 231.554688 48.375 233.394531 50.285156 "/>
<path style=" stroke:none;fill-rule:evenodd;fill:rgb(13.699341%,12.199402%,12.5%);fill-opacity:1;" d="M 253.589844 57.875 C 253.589844 59.863281 254.121094 61.441406 255.183594 62.601563 C 256.273438 63.773438 257.714844 64.359375 259.5 64.359375 C 261.300781 64.359375 262.738281 63.78125 263.816406 62.621094 C 264.894531 61.460938 265.433594 59.914063 265.433594 57.976563 C 265.433594 56.039063 264.894531 54.492188 263.816406 53.332031 C 262.726563 52.160156 261.285156 51.574219 259.5 51.574219 C 257.738281 51.574219 256.316406 52.160156 255.222656 53.332031 C 254.132813 54.507813 253.589844 56.019531 253.589844 57.875 M 248.882813 57.792969 C 248.882813 54.914063 249.910156 52.46875 251.972656 50.449219 C 254.03125 48.429688 256.539063 47.421875 259.5 47.417969 C 262.472656 47.417969 264.996094 48.4375 267.066406 50.46875 C 269.113281 52.5 270.136719 54.996094 270.136719 57.957031 C 270.136719 60.941406 269.109375 63.445313 267.050781 65.464844 C 264.976563 67.46875 262.433594 68.472656 259.417969 68.472656 C 256.433594 68.472656 253.929688 67.449219 251.910156 65.402344 C 249.890625 63.382813 248.882813 60.847656 248.882813 57.792969 "/>
<path style=" stroke:none;fill-rule:evenodd;fill:rgb(13.699341%,12.199402%,12.5%);fill-opacity:1;" d="M 328.105469 42.019531 L 324.242188 44.308594 C 323.519531 43.054688 322.828125 42.238281 322.175781 41.851563 C 321.492188 41.417969 320.613281 41.199219 319.535156 41.199219 C 318.210938 41.199219 317.113281 41.574219 316.242188 42.324219 C 315.367188 43.058594 314.933594 43.988281 314.933594 45.105469 C 314.933594 46.648438 316.078125 47.890625 318.371094 48.828125 L 321.519531 50.117188 C 324.085938 51.15625 325.960938 52.421875 327.148438 53.921875 C 328.332031 55.410156 328.925781 57.238281 328.925781 59.40625 C 328.925781 62.3125 327.957031 64.710938 326.023438 66.605469 C 324.070313 68.515625 321.652344 69.46875 318.761719 69.472656 C 316.019531 69.46875 313.753906 68.660156 311.96875 67.035156 C 310.210938 65.414063 309.109375 63.128906 308.675781 60.183594 L 313.503906 59.121094 C 313.71875 60.972656 314.101563 62.257813 314.648438 62.964844 C 315.628906 64.328125 317.0625 65.011719 318.945313 65.011719 C 320.429688 65.011719 321.664063 64.515625 322.648438 63.519531 C 323.628906 62.523438 324.117188 61.261719 324.117188 59.734375 C 324.117188 59.121094 324.03125 58.558594 323.851563 58.054688 C 323.691406 57.539063 323.421875 57.066406 323.054688 56.644531 C 322.699219 56.207031 322.238281 55.804688 321.664063 55.4375 C 321.089844 55.054688 320.410156 54.695313 319.617188 54.351563 L 316.570313 53.085938 C 312.246094 51.257813 310.085938 48.585938 310.085938 45.066406 C 310.085938 42.691406 310.992188 40.707031 312.804688 39.113281 C 314.617188 37.503906 316.875 36.699219 319.574219 36.699219 C 323.21875 36.699219 326.0625 38.472656 328.105469 42.019531 "/>
<path style=" stroke:none;fill-rule:evenodd;fill:rgb(13.699341%,12.199402%,12.5%);fill-opacity:1;" d="M 336.429688 53.269531 L 336.429688 68.898438 L 331.828125 68.898438 L 331.828125 53.269531 L 329.863281 53.269531 L 329.863281 48.972656 L 331.828125 48.972656 L 331.824219 41.667969 L 336.429688 41.671875 L 336.429688 48.972656 L 340.011719 48.972656 L 340.011719 53.269531 "/>
<path style=" stroke:none;fill-rule:evenodd;fill:rgb(13.699341%,12.199402%,12.5%);fill-opacity:1;" d="M 345.230469 48.972656 L 345.230469 60.410156 C 345.230469 63.710938 346.535156 65.359375 349.140625 65.359375 C 351.742188 65.359375 353.046875 63.710938 353.046875 60.410156 L 353.046875 48.972656 L 357.648438 48.972656 L 357.648438 60.511719 C 357.648438 62.109375 357.449219 63.484375 357.054688 64.644531 C 356.675781 65.679688 356.011719 66.617188 355.070313 67.449219 C 353.519531 68.796875 351.539063 69.472656 349.140625 69.472656 C 346.753906 69.472656 344.78125 68.796875 343.226563 67.445313 C 342.273438 66.613281 341.597656 65.679688 341.203125 64.644531 C 340.820313 63.71875 340.628906 62.339844 340.628906 60.511719 L 340.628906 48.972656 "/>
<path style=" stroke:none;fill-rule:evenodd;fill:rgb(13.699341%,12.199402%,12.5%);fill-opacity:1;" d="M 362.96875 58.875 C 362.96875 60.785156 363.480469 62.339844 364.503906 63.539063 C 365.554688 64.753906 366.878906 65.359375 368.472656 65.359375 C 370.179688 65.359375 371.554688 64.773438 372.605469 63.601563 C 373.65625 62.386719 374.179688 60.84375 374.179688 58.976563 C 374.179688 57.109375 373.65625 55.566406 372.605469 54.351563 C 371.554688 53.164063 370.191406 52.574219 368.515625 52.574219 C 366.929688 52.574219 365.609375 53.171875 364.546875 54.375 C 363.496094 55.585938 362.96875 57.089844 362.96875 58.875 M 373.894531 38.824219 L 378.515625 38.824219 L 378.519531 68.898438 L 373.894531 68.898438 L 373.894531 66.8125 C 372.082031 68.585938 370.027344 69.46875 367.738281 69.472656 C 365.011719 69.472656 362.746094 68.476563 360.945313 66.484375 C 359.15625 64.453125 358.265625 61.914063 358.265625 58.875 C 358.265625 55.902344 359.15625 53.417969 360.945313 51.425781 C 362.71875 49.421875 364.945313 48.417969 367.632813 48.417969 C 369.964844 48.417969 372.054688 49.375 373.894531 51.285156 "/>
<g clip-path="url(#clip1)" clip-rule="nonzero">
<path style=" stroke:none;fill-rule:evenodd;fill:rgb(13.699341%,12.199402%,12.5%);fill-opacity:1;" d="M 394.089844 58.875 C 394.089844 60.863281 394.621094 62.441406 395.683594 63.601563 C 396.773438 64.773438 398.214844 65.359375 400 65.359375 C 401.800781 65.359375 403.238281 64.78125 404.316406 63.621094 C 405.394531 62.460938 405.933594 60.914063 405.933594 58.976563 C 405.933594 57.039063 405.394531 55.492188 404.316406 54.332031 C 403.226563 53.160156 401.785156 52.574219 400 52.574219 C 398.238281 52.574219 396.816406 53.160156 395.722656 54.332031 C 394.632813 55.507813 394.089844 57.019531 394.089844 58.875 M 389.382813 58.792969 C 389.382813 55.914063 390.410156 53.46875 392.472656 51.449219 C 394.53125 49.429688 397.039063 48.421875 400 48.417969 C 402.972656 48.417969 405.496094 49.4375 407.566406 51.46875 C 409.613281 53.5 410.636719 55.996094 410.636719 58.957031 C 410.636719 61.941406 409.609375 64.445313 407.550781 66.464844 C 405.476563 68.46875 402.933594 69.472656 399.917969 69.472656 C 396.933594 69.472656 394.429688 68.449219 392.410156 66.402344 C 390.390625 64.382813 389.382813 61.847656 389.382813 58.792969 "/>
</g>
<path style=" stroke:none;fill-rule:evenodd;fill:rgb(92.89856%,10.998535%,14.099121%);fill-opacity:1;" d="M 380.777344 63.527344 L 380.777344 63.296875 C 380.761719 62.898438 380.722656 62.601563 380.722656 62.5 C 380.722656 62.214844 380.234375 59.25 380.160156 58.5625 C 380.089844 57.878906 380.265625 57.714844 380.265625 57.714844 C 379.808594 55.183594 380.660156 52.472656 380.660156 52.472656 C 380.351563 52.214844 380.988281 50.859375 380.988281 50.859375 C 381.460938 49.746094 382.023438 48.160156 382.023438 48.160156 C 382.121094 47.804688 382.246094 47.28125 382.34375 46.710938 C 382.425781 45.835938 382.433594 44.945313 382.433594 44.65625 C 382.433594 44.433594 382.144531 44.445313 382.144531 44.242188 C 382.144531 44.007813 382.433594 43.433594 382.449219 43.375 C 382.460938 43.328125 382.453125 43.234375 382.425781 43.171875 C 382.335938 42.78125 382.546875 42.507813 382.867188 42.507813 L 385.355469 42.507813 C 385.671875 42.507813 385.882813 42.78125 385.882813 43.054688 C 385.769531 43.234375 385.761719 43.328125 385.773438 43.375 C 385.789063 43.433594 386.074219 44.007813 386.074219 44.242188 C 386.074219 44.445313 385.785156 44.433594 385.785156 44.65625 C 385.785156 44.941406 385.796875 45.828125 385.878906 46.703125 C 385.972656 47.277344 386.097656 47.800781 386.191406 48.160156 C 386.195313 48.160156 386.761719 49.746094 387.230469 50.859375 C 387.230469 50.859375 387.867188 52.214844 387.5625 52.472656 C 387.5625 52.472656 388.410156 55.183594 387.957031 57.714844 C 387.957031 57.714844 388.128906 57.878906 388.058594 58.5625 C 387.984375 59.25 387.496094 62.214844 387.496094 62.5 C 387.496094 62.605469 387.460938 62.902344 387.445313 63.308594 L 387.445313 63.527344 C 387.445313 65.324219 388.1875 66.203125 388.1875 67.363281 C 388.1875 68.914063 387.203125 69.71875 384.109375 69.71875 C 381.015625 69.71875 380.03125 68.914063 380.03125 67.363281 C 380.03125 66.203125 380.777344 65.324219 380.777344 63.527344 M 373.691406 29.371094 C 373.933594 28.902344 374.003906 28.289063 373.914063 27.519531 C 373.828125 26.753906 373.625 26.171875 373.300781 25.769531 C 372.988281 25.355469 372.578125 25.152344 372.097656 25.152344 C 371.421875 25.152344 370.839844 25.71875 370.367188 26.839844 C 369.894531 27.964844 369.667969 29.382813 369.699219 31.105469 C 370.210938 31.042969 370.726563 30.957031 371.222656 30.859375 C 371.722656 30.765625 372.113281 30.644531 372.398438 30.511719 C 373.023438 30.21875 373.453125 29.835938 373.691406 29.371094 M 357.046875 19.011719 L 356.976563 30.40625 C 357.871094 29.191406 360.265625 26.636719 360.824219 25.925781 C 360.824219 25.925781 361.605469 24.988281 359.632813 23.914063 L 365.035156 23.914063 C 365.035156 23.914063 360.855469 28.800781 360.429688 29.277344 C 361.050781 30.320313 361.449219 30.894531 362.203125 32.136719 C 362.949219 33.386719 363.496094 34.246094 363.839844 34.71875 C 364.253906 35.289063 364.605469 35.6875 364.914063 35.914063 C 365.226563 36.140625 365.695313 36.257813 366.347656 36.257813 C 366.492188 36.257813 366.65625 36.238281 366.835938 36.203125 C 366.425781 35.761719 366.089844 35.273438 365.820313 34.726563 C 365.492188 34.03125 365.277344 33.269531 365.179688 32.429688 C 365.0625 31.371094 365.128906 30.339844 365.402344 29.347656 C 365.671875 28.347656 366.144531 27.453125 366.820313 26.652344 C 367.453125 25.894531 368.292969 25.273438 369.347656 24.796875 C 370.398438 24.320313 371.589844 24.082031 372.929688 24.082031 C 374.503906 24.082031 375.730469 24.335938 376.609375 24.847656 C 377.488281 25.363281 377.992188 26.128906 378.105469 27.160156 C 378.214844 28.136719 377.960938 28.984375 377.335938 29.691406 C 376.703125 30.398438 375.800781 30.917969 374.628906 31.261719 C 373.695313 31.558594 372.902344 31.769531 372.234375 31.898438 C 371.574219 32.023438 370.757813 32.136719 369.792969 32.246094 C 369.859375 32.636719 369.960938 33.082031 370.101563 33.578125 C 370.246094 34.066406 370.425781 34.492188 370.636719 34.839844 C 370.894531 35.238281 371.230469 35.5625 371.644531 35.800781 C 372.054688 36.035156 372.558594 36.15625 373.152344 36.15625 C 373.152344 36.15625 373.570313 36.179688 374.246094 36.0625 C 375.253906 35.894531 376.789063 35.414063 378.1875 34.054688 C 376.589844 38.476563 372.007813 38.179688 372.007813 38.179688 C 371.003906 38.183594 370.089844 38.039063 369.289063 37.757813 C 368.78125 37.578125 368.320313 37.355469 367.90625 37.089844 C 367.15625 37.421875 366.273438 37.777344 365.835938 37.902344 C 365.226563 38.074219 364.667969 38.160156 364.160156 38.160156 C 363.914063 38.160156 363.605469 38.144531 363.222656 38.105469 C 362.847656 38.070313 362.503906 37.996094 362.210938 37.867188 C 361.828125 37.703125 361.46875 37.476563 361.125 37.1875 C 360.773438 36.902344 360.402344 36.441406 360 35.8125 C 359.421875 34.921875 359.003906 34.242188 358.742188 33.769531 L 357.652344 31.84375 L 356.953125 32.710938 L 356.925781 37.785156 L 352.730469 37.78125 L 352.695313 21.316406 C 352.699219 21.15625 352.695313 21.019531 352.683594 20.882813 C 352.671875 20.753906 352.65625 20.632813 352.628906 20.546875 C 352.5625 20.222656 352.457031 19.964844 352.308594 19.777344 C 352.164063 19.582031 351.972656 19.429688 351.738281 19.316406 C 351.507813 19.199219 351.261719 19.046875 350.980469 19 Z M 346.914063 31.152344 C 346.90625 30.097656 346.824219 29.097656 346.675781 28.152344 C 346.503906 27.097656 346.207031 26.324219 345.785156 25.832031 C 345.363281 25.332031 344.820313 25.085938 344.167969 25.085938 C 343.496094 25.085938 342.921875 25.363281 342.453125 25.914063 C 341.984375 26.46875 341.664063 27.28125 341.480469 28.355469 C 341.316406 29.246094 341.253906 30.214844 341.289063 31.253906 C 341.324219 32.296875 341.40625 33.226563 341.535156 34.050781 C 341.714844 35.140625 342.011719 35.929688 342.4375 36.421875 C 342.867188 36.910156 343.410156 37.160156 344.074219 37.160156 C 344.792969 37.160156 345.367188 36.859375 345.792969 36.253906 C 346.214844 35.648438 346.515625 34.902344 346.679688 34.027344 C 346.980469 32.5 346.9375 32.796875 346.914063 31.152344 M 349.179688 25.539063 C 350.476563 26.53125 351.269531 27.914063 351.554688 29.683594 C 351.734375 30.820313 351.699219 31.902344 351.445313 32.9375 C 351.183594 33.972656 350.738281 34.871094 350.085938 35.636719 C 349.378906 36.453125 348.507813 37.085938 347.460938 37.53125 C 346.417969 37.972656 345.199219 38.195313 343.800781 38.195313 C 341.9375 38.195313 340.347656 37.683594 339.042969 36.664063 C 338.210938 36.019531 337.589844 35.230469 337.171875 34.289063 C 337.015625 34.527344 336.847656 34.765625 336.664063 35.003906 C 336.164063 35.660156 335.574219 36.234375 334.882813 36.71875 C 334.160156 37.234375 333.398438 37.625 332.589844 37.898438 C 331.796875 38.167969 330.796875 38.300781 329.621094 38.300781 C 328.421875 38.300781 327.289063 38.117188 326.214844 37.753906 C 325.140625 37.394531 324.179688 36.863281 323.34375 36.179688 C 322.515625 35.496094 321.820313 34.65625 321.265625 33.671875 C 320.71875 32.683594 320.351563 31.570313 320.167969 30.328125 C 319.933594 28.675781 320.007813 27.125 320.394531 25.667969 C 320.773438 24.203125 321.414063 22.902344 322.332031 21.757813 C 323.203125 20.65625 324.339844 19.777344 325.726563 19.097656 C 327.121094 18.429688 328.65625 18.09375 330.335938 18.09375 C 331.347656 18.09375 332.394531 18.222656 333.46875 18.476563 C 333.699219 18.53125 333.914063 18.578125 334.128906 18.648438 C 335.355469 19.03125 336.210938 19.09375 336.796875 19.035156 L 336.402344 24.542969 C 335.804688 23.058594 334.894531 21.753906 334.105469 20.941406 C 333.074219 19.875 331.863281 19.339844 330.480469 19.339844 C 329.460938 19.339844 328.570313 19.652344 327.796875 20.273438 C 327.027344 20.890625 326.398438 21.851563 325.921875 23.136719 C 325.53125 24.199219 325.296875 25.433594 325.207031 26.832031 C 325.117188 28.230469 325.167969 29.542969 325.339844 30.769531 C 325.597656 32.566406 326.226563 33.972656 327.21875 34.964844 C 328.210938 35.96875 329.429688 36.46875 330.855469 36.46875 C 332.113281 36.46875 333.222656 36.109375 334.1875 35.390625 C 335.085938 34.71875 335.914063 33.78125 336.667969 32.5625 C 336.464844 31.296875 336.5 30.183594 336.769531 29.160156 C 337.039063 28.132813 337.507813 27.234375 338.160156 26.472656 C 338.8125 25.726563 339.667969 25.132813 340.722656 24.699219 C 341.773438 24.257813 342.949219 24.046875 344.261719 24.046875 C 346.230469 24.046875 347.878906 24.542969 349.179688 25.539063 "/>
</g>
</svg>
