<?xml version="1.0" encoding="UTF-8"?>
<svg xmlns="http://www.w3.org/2000/svg" xmlns:xlink="http://www.w3.org/1999/xlink" width="674pt" height="290pt" viewBox="0 0 674 290" version="1.1">
<g id="surface1">
<path style=" stroke:none;fill-rule:evenodd;fill:rgb(0%,0%,0%);fill-opacity:1;" d="M 1.042969 151.863281 L 672.808594 151.863281 L 672.808594 288.882813 L 1.042969 288.882813 L 1.042969 151.863281 "/>
<path style="fill:none;stroke-width:5.6693;stroke-linecap:butt;stroke-linejoin:miter;stroke:rgb(13.699341%,12.199402%,12.5%);stroke-opacity:1;stroke-miterlimit:2.61313;" d="M 10.429688 1381.367188 L 6728.085938 1381.367188 L 6728.085938 11.171875 L 10.429688 11.171875 Z M 10.429688 1381.367188 " transform="matrix(0.1,0,0,-0.1,0,290)"/>
<path style=" stroke:none;fill-rule:evenodd;fill:rgb(100%,100%,100%);fill-opacity:1;" d="M 218.34375 204.25 C 217.066406 204.25 216.222656 204.882813 215.582031 205.921875 C 214.921875 206.992188 214.511719 208.664063 214.511719 210.75 L 214.511719 226.898438 C 214.511719 230.460938 214.742188 232.765625 215.355469 233.8125 C 215.996094 234.875 217.066406 235.304688 218.34375 235.304688 L 218.546875 235.304688 C 220.007813 235.304688 221.078125 234.875 221.515625 233.8125 C 222.128906 232.96875 222.355469 231.105469 222.355469 228.171875 L 222.355469 212.636719 C 222.355469 209.28125 222.128906 206.992188 221.515625 205.921875 C 220.875 204.882813 220.007813 204.25 218.546875 204.25 Z M 218.34375 251.023438 C 217.269531 250.390625 216.222656 249.757813 215.148438 248.921875 L 215.148438 255.207031 C 215.148438 257.949219 214.921875 259.414063 214.28125 260.039063 C 213.691406 260.667969 212.390625 260.847656 210.496094 260.847656 L 203.496094 260.847656 C 201.378906 260.847656 200.101563 260.667969 199.6875 260.242188 C 199.257813 259.8125 199.050781 258.355469 199.050781 255.851563 L 199.050781 192.503906 C 199.050781 190.847656 199.257813 189.773438 199.894531 189.367188 C 200.511719 188.734375 201.8125 188.546875 203.703125 188.546875 L 210.496094 188.546875 C 211.980469 188.546875 213.03125 188.734375 213.460938 189.367188 C 214.101563 189.773438 214.28125 190.847656 214.511719 192.503906 C 215.789063 191.039063 217.066406 190.011719 218.34375 189.367188 C 218.546875 189.140625 218.753906 189.140625 218.960938 188.9375 C 220.667969 188.34375 222.128906 188.105469 224.066406 188.105469 C 229.128906 188.105469 232.527344 190.632813 234.851563 195.675781 C 237.179688 200.695313 238.25 208.867188 238.25 220.183594 C 238.25 231.105469 236.996094 239.265625 234.648438 244.304688 C 232.296875 249.328125 228.492188 251.84375 223.199219 251.84375 C 221.71875 251.84375 220.234375 251.664063 218.753906 251.023438 L 218.34375 251.023438 "/>
<path style=" stroke:none;fill-rule:evenodd;fill:rgb(100%,100%,100%);fill-opacity:1;" d="M 156.023438 247.253906 L 155.839844 240.101563 L 155.839844 238.441406 C 155.839844 236.769531 156.023438 235.492188 156.453125 234.648438 C 156.890625 234.027344 157.710938 233.609375 158.804688 233.609375 C 159.007813 233.609375 159.851563 233.8125 161.335938 234.21875 C 162.816406 234.648438 164.09375 234.875 165.347656 234.875 C 167.265625 234.875 168.539063 234.648438 169.382813 234.027344 C 170 233.398438 170.457031 232.359375 170.457031 230.90625 C 170.457031 229.222656 168.953125 226.898438 166.011719 224.390625 C 165.164063 223.773438 164.527344 223.140625 163.867188 222.6875 C 161.128906 220.183594 159.214844 217.464844 157.9375 214.734375 C 156.660156 212.015625 156.023438 208.867188 156.023438 205.507813 C 156.023438 200.269531 157.527344 195.878906 160.902344 192.503906 C 164.09375 189.140625 168.3125 187.484375 173.625 187.484375 C 178.914063 187.484375 182.109375 187.890625 183.363281 188.546875 C 184.640625 189.367188 185.300781 190.847656 185.300781 192.945313 L 185.300781 199.21875 C 185.300781 200.695313 185.074219 201.953125 184.433594 202.796875 C 183.820313 203.414063 182.953125 203.835938 181.878906 203.835938 C 181.46875 203.835938 180.832031 203.835938 179.757813 203.632813 C 178.914063 203.414063 178.074219 203.414063 177.433594 203.414063 C 176.15625 203.414063 175.3125 203.632813 174.46875 204.25 C 173.832031 204.882813 173.421875 205.921875 173.421875 206.992188 C 173.421875 208.03125 174.902344 210.132813 177.640625 213.0625 C 179.121094 214.53125 180.171875 215.570313 181.039063 216.652344 C 183.363281 219.15625 185.074219 221.664063 186.097656 224.390625 C 187.195313 226.898438 187.808594 229.828125 187.808594 232.765625 C 187.808594 238.859375 186.097656 243.679688 182.519531 247.253906 C 179.121094 250.582031 174.242188 252.273438 168.132813 252.273438 C 163.867188 252.273438 160.902344 252.082031 159.007813 251.234375 C 157.09375 250.582031 156.023438 249.542969 156.023438 248.074219 L 156.023438 247.253906 "/>
<path style=" stroke:none;fill-rule:evenodd;fill:rgb(100%,100%,100%);fill-opacity:1;" d="M 297.355469 181.390625 L 297.355469 176.796875 C 297.355469 174.699219 297.789063 173.234375 298.429688 172.613281 C 299.269531 171.96875 300.730469 171.539063 303.054688 171.539063 L 310.101563 171.539063 C 311.355469 171.539063 312.175781 171.742188 312.839844 172.183594 C 313.226563 172.613281 313.660156 173.445313 313.660156 174.484375 L 313.660156 175.117188 C 313.453125 176.371094 313.453125 177.421875 313.453125 178.683594 L 313.453125 210.132813 L 314.9375 210.132813 C 317.078125 205.921875 318.949219 200.898438 320.660156 194.828125 C 321.09375 192.945313 321.503906 191.671875 321.710938 191.039063 C 321.9375 190.214844 322.347656 189.59375 322.984375 189.140625 C 323.421875 188.734375 324.492188 188.734375 325.953125 188.734375 L 329.78125 188.734375 C 333.589844 188.734375 335.914063 188.9375 336.78125 189.367188 C 337.808594 190.011719 338.238281 191.039063 338.238281 192.503906 C 338.238281 193.984375 337.421875 196.714844 335.914063 200.695313 C 334.433594 204.882813 331.878906 210.75 328.503906 218.523438 L 338.882813 246.203125 C 339.085938 247.050781 339.3125 247.457031 339.3125 247.882813 C 339.519531 248.304688 339.519531 248.730469 339.519531 249.117188 C 339.519531 249.960938 339.3125 250.390625 338.882813 250.796875 C 338.675781 251.023438 337.628906 251.234375 336.371094 251.234375 L 325.746094 251.234375 C 324.492188 251.234375 323.421875 250.796875 322.78125 250.1875 C 322.140625 249.542969 321.503906 248.074219 320.867188 245.796875 L 315.371094 226.492188 L 313.453125 226.492188 L 313.453125 246.203125 C 313.453125 248.492188 313.226563 249.960938 312.609375 250.582031 C 312.175781 251.023438 311.128906 251.449219 309.648438 251.449219 C 309.214844 251.449219 308.367188 251.449219 307.523438 251.234375 L 302.441406 251.234375 C 301.390625 251.449219 300.730469 251.449219 300.546875 251.449219 C 299.269531 251.449219 298.632813 251.023438 298.199219 250.390625 C 297.789063 249.757813 297.355469 248.304688 297.355469 245.976563 L 297.355469 181.390625 "/>
<path style=" stroke:none;fill-rule:evenodd;fill:rgb(100%,100%,100%);fill-opacity:1;" d="M 248.421875 247.253906 C 248.421875 245.796875 248.628906 244.734375 249.058594 244.117188 C 249.46875 243.476563 250.105469 243.03125 250.949219 243.03125 C 251.589844 243.03125 252.226563 243.25 252.867188 243.679688 C 253.503906 244.117188 253.9375 244.117188 254.144531 244.117188 C 254.984375 244.117188 255.398438 244.117188 255.828125 243.890625 C 256.265625 243.476563 256.265625 243.03125 256.265625 242.421875 L 256.265625 241.160156 C 256.035156 240.742188 256.035156 240.101563 256.035156 239.695313 L 246.730469 194.195313 C 246.730469 193.78125 246.730469 193.351563 246.527344 192.945313 C 246.527344 192.304688 246.296875 191.882813 246.296875 191.671875 C 246.296875 190.847656 246.730469 190.011719 247.371094 189.367188 C 248.214844 188.9375 249.058594 188.546875 250.335938 188.546875 L 259.640625 188.546875 C 261.53125 188.546875 262.625 190.011719 262.832031 192.945313 L 266.664063 232.15625 L 268.554688 232.15625 L 271.722656 191.671875 C 271.722656 190.417969 272.132813 189.59375 272.566406 189.140625 C 273.207031 188.734375 274.074219 188.546875 275.53125 188.546875 L 283.582031 188.546875 C 285.0625 188.546875 286.15625 188.9375 286.753906 189.367188 C 287.640625 190.011719 288.054688 190.847656 288.054688 191.882813 C 288.054688 192.304688 287.847656 192.71875 287.847656 193.136719 C 287.847656 193.78125 287.640625 194.195313 287.640625 194.828125 L 276.378906 246.203125 C 275.328125 251.664063 273.414063 255.421875 270.882813 257.734375 C 268.351563 260.039063 264.726563 261.289063 260.050781 261.289063 C 255.828125 261.289063 252.867188 260.847656 251.179688 260.039063 C 249.265625 259.414063 248.421875 258.140625 248.421875 256.664063 L 248.421875 247.253906 "/>
<path style=" stroke:none;fill-rule:evenodd;fill:rgb(100%,100%,100%);fill-opacity:1;" d="M 367.703125 219.5625 C 366.425781 219.5625 365.582031 220.183594 364.945313 221.054688 C 364.101563 222.101563 363.894531 223.554688 363.894531 225.4375 L 363.894531 232.5625 C 363.894531 234.21875 364.101563 235.699219 364.738281 236.546875 C 365.378906 237.585938 366.425781 238.023438 367.703125 238.023438 L 367.882813 238.023438 C 369.183594 238.023438 370.257813 237.585938 370.894531 236.546875 C 371.511719 235.699219 371.738281 234.027344 371.738281 231.714844 L 371.738281 225.238281 C 371.738281 223.140625 371.511719 221.664063 370.894531 220.835938 C 370.257813 219.980469 369.390625 219.5625 368.136719 219.5625 Z M 367.703125 251.234375 C 366.425781 251.84375 364.738281 252.273438 362.800781 252.273438 C 358.375 252.273438 354.976563 250.1875 352.242188 246.203125 C 349.710938 241.996094 348.414063 236.769531 348.414063 230.054688 C 348.414063 222.90625 349.710938 217.464844 352.652344 213.289063 C 355.410156 209.09375 359.21875 206.992188 363.664063 206.992188 C 364.945313 206.992188 366.21875 207.195313 367.703125 207.625 C 369.390625 208.03125 370.257813 208.246094 370.667969 208.246094 C 371.304688 208.246094 371.511719 208.246094 371.738281 207.820313 C 372.171875 207.625 372.171875 206.992188 372.171875 206.359375 C 372.171875 204.679688 371.511719 203.414063 370.4375 202.378906 C 369.617188 201.953125 368.753906 201.546875 367.703125 201.328125 C 367.0625 201.125 366.21875 201.125 365.582031 201.125 C 363.664063 201.125 361.773438 201.328125 359.425781 201.953125 C 357.304688 202.582031 356.027344 202.984375 355.617188 202.984375 C 354.75 202.984375 353.929688 202.796875 353.496094 202.164063 C 353.109375 201.746094 353.109375 200.695313 353.109375 199.445313 L 353.109375 193.984375 C 353.109375 192.503906 353.109375 191.671875 353.269531 191.039063 C 353.726563 190.632813 354.132813 190.214844 354.75 190.011719 C 356.257813 189.367188 358.375 188.734375 360.90625 188.34375 C 363.257813 187.890625 365.582031 187.6875 367.703125 187.6875 L 369.183594 187.6875 C 375.957031 187.6875 380.632813 188.734375 383.390625 191.039063 C 386.128906 193.566406 387.632813 197.75 387.632813 203.835938 L 387.632813 247.660156 C 387.632813 249.117188 387.40625 250.1875 386.972656 250.582031 C 386.539063 251.023438 385.054688 251.234375 382.730469 251.234375 L 375.136719 251.234375 C 373.632813 251.234375 372.789063 251.023438 372.582031 250.796875 C 372.171875 250.390625 371.921875 249.117188 371.921875 247.253906 L 371.304688 247.253906 C 370.667969 248.921875 369.617188 250.1875 368.136719 251.023438 C 368.136719 251.023438 367.882813 251.234375 367.703125 251.234375 "/>
<path style=" stroke:none;fill-rule:evenodd;fill:rgb(100%,100%,100%);fill-opacity:1;" d="M 403.9375 251.234375 C 402.226563 251.234375 401.199219 250.796875 400.742188 250.1875 C 400.105469 249.328125 399.902344 247.882813 399.902344 245.5625 L 399.902344 198.804688 C 399.71875 197.335938 399.71875 196.0625 399.71875 195.03125 C 399.71875 192.101563 400.105469 190.417969 400.972656 189.59375 C 401.816406 188.734375 403.710938 188.546875 406.46875 188.546875 L 411.964844 188.546875 C 414.085938 188.546875 415.382813 190.417969 415.382813 194.390625 L 415.382813 194.828125 L 416.226563 195.03125 C 417.074219 192.71875 417.914063 190.847656 418.964844 189.367188 C 420.039063 187.890625 421.0625 187.269531 422.15625 187.269531 C 423.433594 187.269531 424.277344 187.6875 424.710938 188.546875 C 425.347656 189.59375 425.53125 191.039063 425.53125 193.566406 L 425.53125 205.085938 C 425.53125 207.820313 424.710938 209.28125 422.796875 209.703125 L 422.566406 209.703125 C 420.445313 209.90625 418.964844 210.75 418.140625 211.820313 C 417.277344 212.851563 416.867188 214.53125 416.867188 216.84375 L 416.867188 236.769531 C 416.867188 238.023438 416.867188 239.695313 417.074219 241.765625 C 417.074219 243.890625 417.277344 245.132813 417.277344 245.976563 C 417.277344 248.304688 417.074219 249.757813 416.433594 250.390625 C 416 251.023438 414.746094 251.234375 412.832031 251.234375 L 403.9375 251.234375 "/>
<path style=" stroke:none;fill-rule:nonzero;fill:rgb(89.7995%,14.099121%,27.099609%);fill-opacity:1;" d="M 518.011719 249.429688 C 518.011719 253.265625 514.898438 256.375 511.0625 256.375 L 445.035156 256.375 C 441.195313 256.375 438.085938 253.265625 438.085938 249.429688 L 438.085938 183.398438 C 438.085938 179.5625 441.195313 176.453125 445.035156 176.453125 L 511.0625 176.453125 C 514.898438 176.453125 518.011719 179.5625 518.011719 183.398438 L 518.011719 249.429688 "/>
<path style=" stroke:none;fill-rule:nonzero;fill:rgb(100%,100%,100%);fill-opacity:1;" d="M 467.59375 234.710938 L 468.515625 232.671875 C 475.289063 217.820313 474.449219 211.175781 472.539063 208.226563 C 471.1875 206.101563 468.769531 205.039063 465.335938 205.039063 C 458.679688 205.039063 448.726563 209.164063 438.734375 216.082031 L 438.085938 216.53125 L 438.085938 212.625 C 451.503906 203.542969 464.050781 198.117188 471.710938 198.117188 C 475.503906 198.117188 478.242188 199.375 479.84375 201.828125 C 482.710938 206.234375 481.644531 214.476563 476.667969 226.355469 C 486.347656 222.65625 498.140625 219.132813 512.917969 219.132813 C 514.570313 219.132813 516.265625 219.179688 517.953125 219.265625 L 518.011719 219.265625 L 518.011719 227.40625 L 517.773438 227.375 C 513.824219 226.84375 510.0625 226.578125 506.265625 226.578125 C 493.664063 226.578125 482.539063 229.535156 469.699219 233.976563 L 467.59375 234.710938 "/>
<path style=" stroke:none;fill-rule:evenodd;fill:rgb(100%,100%,100%);fill-opacity:1;" d="M 1.042969 0.882813 L 672.808594 0.882813 L 672.808594 137.898438 L 1.042969 137.898438 L 1.042969 0.882813 "/>
<path style="fill:none;stroke-width:5.6693;stroke-linecap:butt;stroke-linejoin:miter;stroke:rgb(13.699341%,12.199402%,12.5%);stroke-opacity:1;stroke-miterlimit:2.61313;" d="M 10.429688 2891.171875 L 6728.085938 2891.171875 L 6728.085938 1521.015625 L 10.429688 1521.015625 Z M 10.429688 2891.171875 " transform="matrix(0.1,0,0,-0.1,0,290)"/>
<path style=" stroke:none;fill-rule:evenodd;fill:rgb(0%,0%,0%);fill-opacity:1;" d="M 218.34375 53.269531 C 217.066406 53.269531 216.222656 53.898438 215.582031 54.9375 C 214.921875 56.011719 214.511719 57.679688 214.511719 59.769531 L 214.511719 75.914063 C 214.511719 79.480469 214.742188 81.78125 215.355469 82.832031 C 215.996094 83.890625 217.066406 84.320313 218.34375 84.320313 L 218.546875 84.320313 C 220.007813 84.320313 221.078125 83.890625 221.515625 82.832031 C 222.128906 81.984375 222.355469 80.121094 222.355469 77.1875 L 222.355469 61.65625 C 222.355469 58.300781 222.128906 56.011719 221.515625 54.9375 C 220.875 53.898438 220.007813 53.269531 218.546875 53.269531 Z M 218.34375 100.039063 C 217.269531 99.40625 216.222656 98.773438 215.148438 97.9375 L 215.148438 104.226563 C 215.148438 106.96875 214.921875 108.433594 214.28125 109.054688 C 213.691406 109.6875 212.390625 109.867188 210.496094 109.867188 L 203.496094 109.867188 C 201.378906 109.867188 200.101563 109.6875 199.6875 109.257813 C 199.257813 108.828125 199.050781 107.371094 199.050781 104.867188 L 199.050781 41.523438 C 199.050781 39.867188 199.257813 38.792969 199.894531 38.386719 C 200.511719 37.753906 201.8125 37.5625 203.703125 37.5625 L 210.496094 37.5625 C 211.980469 37.5625 213.03125 37.753906 213.460938 38.386719 C 214.101563 38.792969 214.28125 39.867188 214.511719 41.523438 C 215.789063 40.054688 217.066406 39.03125 218.34375 38.386719 C 218.546875 38.160156 218.753906 38.160156 218.960938 37.957031 C 220.667969 37.359375 222.128906 37.121094 224.066406 37.121094 C 229.128906 37.121094 232.527344 39.648438 234.851563 44.695313 C 237.179688 49.714844 238.25 57.886719 238.25 69.203125 C 238.25 80.121094 236.996094 88.28125 234.648438 93.324219 C 232.296875 98.347656 228.492188 100.859375 223.199219 100.859375 C 221.71875 100.859375 220.234375 100.679688 218.753906 100.039063 L 218.34375 100.039063 "/>
<path style=" stroke:none;fill-rule:evenodd;fill:rgb(0%,0%,0%);fill-opacity:1;" d="M 156.023438 96.269531 L 155.839844 89.117188 L 155.839844 87.460938 C 155.839844 85.785156 156.023438 84.511719 156.453125 83.667969 C 156.890625 83.046875 157.710938 82.628906 158.804688 82.628906 C 159.007813 82.628906 159.851563 82.832031 161.335938 83.238281 C 162.816406 83.667969 164.09375 83.890625 165.347656 83.890625 C 167.265625 83.890625 168.539063 83.667969 169.382813 83.046875 C 170 82.414063 170.457031 81.375 170.457031 79.921875 C 170.457031 78.242188 168.953125 75.914063 166.011719 73.410156 C 165.164063 72.789063 164.527344 72.15625 163.867188 71.703125 C 161.128906 69.203125 159.214844 66.484375 157.9375 63.753906 C 156.660156 61.03125 156.023438 57.886719 156.023438 54.523438 C 156.023438 49.285156 157.527344 44.898438 160.902344 41.523438 C 164.09375 38.160156 168.3125 36.503906 173.625 36.503906 C 178.914063 36.503906 182.109375 36.90625 183.363281 37.5625 C 184.640625 38.386719 185.300781 39.867188 185.300781 41.960938 L 185.300781 48.234375 C 185.300781 49.714844 185.074219 50.96875 184.433594 51.8125 C 183.820313 52.433594 182.953125 52.851563 181.878906 52.851563 C 181.46875 52.851563 180.832031 52.851563 179.757813 52.648438 C 178.914063 52.433594 178.074219 52.433594 177.433594 52.433594 C 176.15625 52.433594 175.3125 52.648438 174.46875 53.269531 C 173.832031 53.898438 173.421875 54.9375 173.421875 56.011719 C 173.421875 57.046875 174.902344 59.148438 177.640625 62.082031 C 179.121094 63.546875 180.171875 64.585938 181.039063 65.671875 C 183.363281 68.171875 185.074219 70.679688 186.097656 73.410156 C 187.195313 75.914063 187.808594 78.847656 187.808594 81.78125 C 187.808594 87.875 186.097656 92.695313 182.519531 96.269531 C 179.121094 99.601563 174.242188 101.292969 168.132813 101.292969 C 163.867188 101.292969 160.902344 101.101563 159.007813 100.253906 C 157.09375 99.601563 156.023438 98.5625 156.023438 97.09375 L 156.023438 96.269531 "/>
<path style=" stroke:none;fill-rule:evenodd;fill:rgb(0%,0%,0%);fill-opacity:1;" d="M 297.355469 30.40625 L 297.355469 25.816406 C 297.355469 23.71875 297.789063 22.25 298.429688 21.632813 C 299.269531 20.984375 300.730469 20.554688 303.054688 20.554688 L 310.101563 20.554688 C 311.355469 20.554688 312.175781 20.757813 312.839844 21.203125 C 313.226563 21.632813 313.660156 22.464844 313.660156 23.503906 L 313.660156 24.132813 C 313.453125 25.390625 313.453125 26.4375 313.453125 27.703125 L 313.453125 59.148438 L 314.9375 59.148438 C 317.078125 54.9375 318.949219 49.917969 320.660156 43.847656 C 321.09375 41.960938 321.503906 40.6875 321.710938 40.054688 C 321.9375 39.234375 322.347656 38.613281 322.984375 38.160156 C 323.421875 37.753906 324.492188 37.753906 325.953125 37.753906 L 329.78125 37.753906 C 333.589844 37.753906 335.914063 37.957031 336.78125 38.386719 C 337.808594 39.03125 338.238281 40.054688 338.238281 41.523438 C 338.238281 43 337.421875 45.734375 335.914063 49.714844 C 334.433594 53.898438 331.878906 59.769531 328.503906 67.542969 L 338.882813 95.21875 C 339.085938 96.070313 339.3125 96.476563 339.3125 96.902344 C 339.519531 97.320313 339.519531 97.746094 339.519531 98.132813 C 339.519531 98.976563 339.3125 99.40625 338.882813 99.8125 C 338.675781 100.039063 337.628906 100.253906 336.371094 100.253906 L 325.746094 100.253906 C 324.492188 100.253906 323.421875 99.8125 322.78125 99.203125 C 322.140625 98.5625 321.503906 97.09375 320.867188 94.8125 L 315.371094 75.507813 L 313.453125 75.507813 L 313.453125 95.21875 C 313.453125 97.511719 313.226563 98.976563 312.609375 99.601563 C 312.175781 100.039063 311.128906 100.46875 309.648438 100.46875 C 309.214844 100.46875 308.367188 100.46875 307.523438 100.253906 L 302.441406 100.253906 C 301.390625 100.46875 300.730469 100.46875 300.546875 100.46875 C 299.269531 100.46875 298.632813 100.039063 298.199219 99.40625 C 297.789063 98.773438 297.355469 97.320313 297.355469 94.996094 L 297.355469 30.40625 "/>
<path style=" stroke:none;fill-rule:evenodd;fill:rgb(0%,0%,0%);fill-opacity:1;" d="M 248.421875 96.269531 C 248.421875 94.8125 248.628906 93.753906 249.058594 93.132813 C 249.46875 92.492188 250.105469 92.050781 250.949219 92.050781 C 251.589844 92.050781 252.226563 92.265625 252.867188 92.695313 C 253.503906 93.132813 253.9375 93.132813 254.144531 93.132813 C 254.984375 93.132813 255.398438 93.132813 255.828125 92.90625 C 256.265625 92.492188 256.265625 92.050781 256.265625 91.4375 L 256.265625 90.179688 C 256.035156 89.757813 256.035156 89.117188 256.035156 88.710938 L 246.730469 43.214844 C 246.730469 42.796875 246.730469 42.371094 246.527344 41.960938 C 246.527344 41.320313 246.296875 40.902344 246.296875 40.6875 C 246.296875 39.867188 246.730469 39.03125 247.371094 38.386719 C 248.214844 37.957031 249.058594 37.5625 250.335938 37.5625 L 259.640625 37.5625 C 261.53125 37.5625 262.625 39.03125 262.832031 41.960938 L 266.664063 81.171875 L 268.554688 81.171875 L 271.722656 40.6875 C 271.722656 39.4375 272.132813 38.613281 272.566406 38.160156 C 273.207031 37.753906 274.074219 37.5625 275.53125 37.5625 L 283.582031 37.5625 C 285.0625 37.5625 286.15625 37.957031 286.753906 38.386719 C 287.640625 39.03125 288.054688 39.867188 288.054688 40.902344 C 288.054688 41.320313 287.847656 41.738281 287.847656 42.15625 C 287.847656 42.796875 287.640625 43.214844 287.640625 43.847656 L 276.378906 95.21875 C 275.328125 100.679688 273.414063 104.4375 270.882813 106.753906 C 268.351563 109.054688 264.726563 110.304688 260.050781 110.304688 C 255.828125 110.304688 252.867188 109.867188 251.179688 109.054688 C 249.265625 108.433594 248.421875 107.15625 248.421875 105.679688 L 248.421875 96.269531 "/>
<path style=" stroke:none;fill-rule:evenodd;fill:rgb(0%,0%,0%);fill-opacity:1;" d="M 367.703125 68.578125 C 366.425781 68.578125 365.582031 69.203125 364.945313 70.070313 C 364.101563 71.117188 363.894531 72.574219 363.894531 74.457031 L 363.894531 81.578125 C 363.894531 83.238281 364.101563 84.71875 364.738281 85.5625 C 365.378906 86.601563 366.425781 87.039063 367.703125 87.039063 L 367.882813 87.039063 C 369.183594 87.039063 370.257813 86.601563 370.894531 85.5625 C 371.511719 84.71875 371.738281 83.046875 371.738281 80.734375 L 371.738281 74.257813 C 371.738281 72.15625 371.511719 70.679688 370.894531 69.855469 C 370.257813 68.996094 369.390625 68.578125 368.136719 68.578125 Z M 367.703125 100.253906 C 366.425781 100.859375 364.738281 101.292969 362.800781 101.292969 C 358.375 101.292969 354.976563 99.203125 352.242188 95.21875 C 349.710938 91.015625 348.414063 85.785156 348.414063 79.074219 C 348.414063 71.921875 349.710938 66.484375 352.652344 62.304688 C 355.410156 58.109375 359.21875 56.011719 363.664063 56.011719 C 364.945313 56.011719 366.21875 56.214844 367.703125 56.640625 C 369.390625 57.046875 370.257813 57.265625 370.667969 57.265625 C 371.304688 57.265625 371.511719 57.265625 371.738281 56.835938 C 372.171875 56.640625 372.171875 56.011719 372.171875 55.378906 C 372.171875 53.695313 371.511719 52.433594 370.4375 51.394531 C 369.617188 50.96875 368.753906 50.5625 367.703125 50.34375 C 367.0625 50.144531 366.21875 50.144531 365.582031 50.144531 C 363.664063 50.144531 361.773438 50.34375 359.425781 50.96875 C 357.304688 51.601563 356.027344 52.003906 355.617188 52.003906 C 354.75 52.003906 353.929688 51.8125 353.496094 51.179688 C 353.109375 50.765625 353.109375 49.714844 353.109375 48.460938 L 353.109375 43 C 353.109375 41.523438 353.109375 40.6875 353.269531 40.054688 C 353.726563 39.648438 354.132813 39.234375 354.75 39.03125 C 356.257813 38.386719 358.375 37.753906 360.90625 37.359375 C 363.257813 36.90625 365.582031 36.703125 367.703125 36.703125 L 369.183594 36.703125 C 375.957031 36.703125 380.632813 37.753906 383.390625 40.054688 C 386.128906 42.585938 387.632813 46.769531 387.632813 52.851563 L 387.632813 96.679688 C 387.632813 98.132813 387.40625 99.203125 386.972656 99.601563 C 386.539063 100.039063 385.054688 100.253906 382.730469 100.253906 L 375.136719 100.253906 C 373.632813 100.253906 372.789063 100.039063 372.582031 99.8125 C 372.171875 99.40625 371.921875 98.132813 371.921875 96.269531 L 371.304688 96.269531 C 370.667969 97.9375 369.617188 99.203125 368.136719 100.039063 C 368.136719 100.039063 367.882813 100.253906 367.703125 100.253906 "/>
<path style=" stroke:none;fill-rule:evenodd;fill:rgb(0%,0%,0%);fill-opacity:1;" d="M 403.9375 100.253906 C 402.226563 100.253906 401.199219 99.8125 400.742188 99.203125 C 400.105469 98.347656 399.902344 96.902344 399.902344 94.578125 L 399.902344 47.820313 C 399.71875 46.351563 399.71875 45.078125 399.71875 44.050781 C 399.71875 41.117188 400.105469 39.4375 400.972656 38.613281 C 401.816406 37.753906 403.710938 37.5625 406.46875 37.5625 L 411.964844 37.5625 C 414.085938 37.5625 415.382813 39.4375 415.382813 43.40625 L 415.382813 43.847656 L 416.226563 44.050781 C 417.074219 41.738281 417.914063 39.867188 418.964844 38.386719 C 420.039063 36.90625 421.0625 36.285156 422.15625 36.285156 C 423.433594 36.285156 424.277344 36.703125 424.710938 37.5625 C 425.347656 38.613281 425.53125 40.054688 425.53125 42.585938 L 425.53125 54.101563 C 425.53125 56.835938 424.710938 58.300781 422.796875 58.71875 L 422.566406 58.71875 C 420.445313 58.921875 418.964844 59.769531 418.140625 60.839844 C 417.277344 61.867188 416.867188 63.546875 416.867188 65.859375 L 416.867188 85.785156 C 416.867188 87.039063 416.867188 88.710938 417.074219 90.785156 C 417.074219 92.90625 417.277344 94.148438 417.277344 94.996094 C 417.277344 97.320313 417.074219 98.773438 416.433594 99.40625 C 416 100.039063 414.746094 100.253906 412.832031 100.253906 L 403.9375 100.253906 "/>
<path style=" stroke:none;fill-rule:nonzero;fill:rgb(89.7995%,14.099121%,27.099609%);fill-opacity:1;" d="M 518.011719 98.445313 C 518.011719 102.28125 514.898438 105.394531 511.0625 105.394531 L 445.035156 105.394531 C 441.195313 105.394531 438.085938 102.28125 438.085938 98.445313 L 438.085938 32.417969 C 438.085938 28.578125 441.195313 25.46875 445.035156 25.46875 L 511.0625 25.46875 C 514.898438 25.46875 518.011719 28.578125 518.011719 32.417969 L 518.011719 98.445313 "/>
<path style=" stroke:none;fill-rule:nonzero;fill:rgb(100%,100%,100%);fill-opacity:1;" d="M 467.59375 83.726563 L 468.515625 81.6875 C 475.289063 66.835938 474.449219 60.195313 472.539063 57.242188 C 471.1875 55.117188 468.769531 54.054688 465.335938 54.054688 C 458.679688 54.054688 448.726563 58.179688 438.734375 65.101563 L 438.085938 65.546875 L 438.085938 61.644531 C 451.503906 52.5625 464.050781 47.132813 471.710938 47.132813 C 475.503906 47.132813 478.242188 48.390625 479.84375 50.847656 C 482.710938 55.253906 481.644531 63.492188 476.667969 75.371094 C 486.347656 71.671875 498.140625 68.152344 512.917969 68.152344 C 514.570313 68.152344 516.265625 68.195313 517.953125 68.28125 L 518.011719 68.28125 L 518.011719 76.425781 L 517.773438 76.394531 C 513.824219 75.859375 510.0625 75.597656 506.265625 75.597656 C 493.664063 75.597656 482.539063 78.554688 469.699219 82.996094 L 467.59375 83.726563 "/>
</g>
</svg>
